<svg width="126" height="64" viewBox="0 0 126 64" fill="none" xmlns="http://www.w3.org/2000/svg">
<path d="M18.2302 48.0186C18.2307 46.5588 17.8093 45.1315 17.019 43.9173C16.2288 42.703 15.1053 41.7563 13.7906 41.1967C12.4759 40.6372 11.0289 40.4899 9.63257 40.7736C8.23625 41.0572 6.95327 41.7591 5.94578 42.7904C4.9383 43.8217 4.25155 45.1361 3.97233 46.5676C3.69311 47.9991 3.83396 49.4834 4.37708 50.8328C4.9202 52.1822 5.8412 53.3362 7.02367 54.1489C8.20614 54.9617 9.597 55.3966 11.0205 55.3988C12.9305 55.3996 14.7626 54.6227 16.1145 53.2389C17.4664 51.8551 18.2273 49.9775 18.2302 48.0186ZM8.73238 48.0186C8.73184 47.5515 8.86644 47.0948 9.11915 46.7061C9.37185 46.3175 9.7313 46.0145 10.152 45.8355C10.5727 45.6565 11.0357 45.6095 11.4824 45.7005C11.9292 45.7915 12.3395 46.0164 12.6616 46.3467C12.9836 46.677 13.2029 47.0979 13.2916 47.556C13.3804 48.0142 13.3345 48.489 13.16 48.9205C12.9855 49.3519 12.69 49.7206 12.3111 49.9797C11.9322 50.2389 11.4868 50.3769 11.0313 50.3764C10.7287 50.3771 10.4289 50.3167 10.1491 50.1986C9.86921 50.0805 9.61477 49.9071 9.40028 49.6881C9.1858 49.4692 9.01546 49.2091 8.89899 48.9226C8.78252 48.6362 8.72221 48.329 8.7215 48.0186H8.73238Z" fill="white"/>
<path d="M125.016 2.01034C123.424 0.00415286 120.647 -0.0209593 119.888 0.00415287H15.1069C15.0525 0.00415287 9.78799 0.0599577 5.89201 0.00415287C4.92618 0.00415287 1.98787 -0.0432813 0.59489 2.1917C0.28289 2.69623 0.0873703 3.26718 0.023246 3.86099C-0.0408782 4.45481 0.028087 5.0558 0.224881 5.61812C2.72244 15.7885 10.7756 18.4672 14.7831 18.4672H28.2966C26.7322 19.8372 25.0318 21.3076 23.7259 22.4293C22.7313 21.7583 21.5584 21.4201 20.3686 21.4611H0.793498V27.0416H20.4366H20.6407C20.7022 27.2456 20.7289 27.4589 20.7196 27.6722V57.4552C20.7119 57.5883 20.6956 57.7206 20.6706 57.8514C17.8983 57.9017 6.67012 57.8654 0.809822 57.8514L0.785336 63.4319C1.26961 63.4319 8.89289 63.4682 14.7586 63.4682C17.8439 63.4682 20.4448 63.4682 21.2637 63.4291C24.5639 63.3119 26.2235 60.2957 26.1609 57.3631V54.8519C32.5599 54.8519 48.6852 54.8854 60.9853 54.8854C68.9051 54.8854 75.2497 54.8854 76.4142 54.8463C80.6584 54.7431 84.7176 51.3306 85.1529 50.954L109.459 30.1834C110.063 29.7063 113.023 27.1867 113.478 23.3724C113.671 21.6736 113.341 19.9554 112.534 18.4588C119.643 18.2105 124.736 10.4592 125.786 6.46077C126.395 4.18951 125.566 2.69953 125.016 2.01034ZM20.6543 27.0332C20.6706 27.0332 20.6788 27.0583 20.6951 27.0667C20.6797 27.058 20.6659 27.0467 20.6543 27.0332ZM108.093 22.6721C107.936 24.0672 106.63 25.3842 106.154 25.7581L106.094 25.8027L81.6705 46.6765C80.7182 47.5136 78.1499 49.2212 76.2999 49.2659C73.4214 49.3356 36.5783 49.2854 26.1609 49.2659V27.6108C27.9701 26.0622 31.5614 22.9678 33.9175 20.8556C36.162 18.8439 38.2705 18.5118 38.6569 18.4672H66.462C67.9067 18.576 68.6031 19.3824 68.5324 20.8696C68.4562 22.4656 67.8278 23.3082 66.6633 23.3808H53.0845C51.9122 23.3927 50.7561 23.6629 49.6946 24.1732C47.2895 25.3507 45.9374 27.608 45.8857 30.5322C45.8394 33.1466 46.8787 34.7706 47.7575 35.6746C49.7164 37.6836 52.4425 37.7868 52.9757 37.7868H52.9947L78.5444 37.8705L101.501 20.7635L101.637 20.6687L101.768 20.5403C102.217 20.1106 103.811 18.9108 105.199 19.0085C105.471 19.028 106.257 19.081 107.217 20.2808C108.221 21.5309 108.126 22.3903 108.093 22.6721ZM52.9539 32.2007C52.6465 32.2007 51.9228 32.0584 51.5936 31.7152C51.4032 31.5143 51.3215 31.1572 51.3215 30.6298C51.3215 30.1806 51.3515 28.9864 53.0464 28.9557H66.7014C69.4738 28.9557 73.6935 26.8742 73.9656 21.143C74.0141 20.244 73.9288 19.3426 73.7125 18.47H95.3254L76.7787 32.2817L52.992 32.2035H52.9512L52.9539 32.2007ZM112.202 12.8867H14.8022C13.4767 12.8047 12.1812 12.4488 10.9932 11.8404C8.59634 10.6238 6.87961 8.52555 5.88929 5.58463C9.74718 5.63486 14.8511 5.58463 15.1395 5.58463H119.953H119.983H120.089C120.179 5.57903 120.27 5.57903 120.361 5.58463C119.39 8.16282 116.032 12.8867 112.202 12.8867Z" fill="white"/>
</svg>
