<svg width="70" height="83" viewBox="0 0 70 83" fill="none" xmlns="http://www.w3.org/2000/svg">
<path d="M63.822 0.0163072L63.6792 0H6.82122C4.52462 0.110527 0.14162 1.54919 0.00279258 6.22211C-0.10232 9.91117 2.77935 11.7648 5.35758 12.3482L8.98297 78.0463C8.96909 78.6098 9.04842 80.3384 10.3534 81.5941C10.7697 81.989 11.2714 82.3005 11.8265 82.5089C12.3817 82.7173 12.9782 82.8179 13.5782 82.8044H56.1488C57.3065 82.9257 58.4713 82.6386 59.4053 82.0018C60.1986 81.4582 61.1664 80.371 61.3231 78.3127C61.5392 75.4716 64.2781 23.0584 64.8314 12.437C67.1043 12.0075 69.7698 10.3207 69.9879 6.65516C70.2418 2.35549 66.4418 0.33158 63.822 0.0163072ZM56.9698 78.0337C56.9302 78.5646 56.7933 78.7983 56.7715 78.8291C56.7458 78.8365 56.7191 78.8408 56.6922 78.8418L56.6247 78.8164H13.5881L13.4889 78.8182C13.3886 78.5997 13.338 78.3648 13.3402 78.1279V78.0608L11.6743 47.8599L37.1412 48.003C37.1412 48.003 39.3962 47.6769 39.3962 45.4192C39.3962 43.1616 37.1412 42.8336 37.1412 42.8336H11.4105L9.74256 12.5511H60.4584C59.8773 23.6581 57.1781 75.2977 56.9698 78.0337ZM65.6307 6.43954C65.5256 8.22246 64.3376 8.53773 63.6296 8.56491H7.01162C6.49024 8.51107 5.98261 8.3769 5.51029 8.1681C4.67138 7.77492 4.34017 7.24765 4.36595 6.32901C4.42545 4.36671 6.34921 4.04057 7.01558 3.98621H63.34C63.7807 4.07517 64.2017 4.23137 64.5855 4.44825C65.3649 4.89217 65.6862 5.51003 65.6307 6.43954Z" fill="white"/>
</svg>
