<svg width="98" height="88" viewBox="0 0 98 88" fill="none" xmlns="http://www.w3.org/2000/svg">
<path d="M83.7513 13.9151C79.2627 9.74702 73.8901 6.42099 67.9477 4.13141C62.0053 1.84183 55.6123 0.634645 49.1422 0.580404C42.6722 0.526163 36.255 1.62596 30.2656 3.8155C24.2763 6.00505 18.835 9.24042 14.2598 13.3325C9.68456 17.4246 6.06722 22.2913 3.61917 27.6483C1.17113 33.0052 -0.0585063 38.7448 0.00213874 44.5316C0.0627838 50.3185 1.41249 56.0364 3.97238 61.3514C6.53226 66.6663 10.251 71.4715 14.9111 75.4862C24.0972 83.3999 36.3885 87.7735 49.1422 87.6665C61.8959 87.5596 74.0934 82.9807 83.1121 74.9144C92.1307 66.8481 97.2502 55.9386 97.3697 44.5316C97.4892 33.1246 92.5993 22.1312 83.7513 13.9151ZM49.3259 84.0477C25.065 84.0477 5.32603 66.395 5.32603 44.6959C5.32603 22.9967 25.065 5.34213 49.3259 5.34213C73.5869 5.34213 93.3236 22.9967 93.3236 44.6959C93.3236 66.395 73.5869 84.0477 49.3259 84.0477Z" fill="white"/>
<path d="M49.3259 15.5344C31.193 15.5344 16.4404 28.7272 16.4404 44.9454C16.4404 61.1635 31.193 74.3564 49.3259 74.3564C67.4587 74.3564 82.2198 61.1616 82.2198 44.9454C82.2198 28.7291 67.4566 15.5344 49.3259 15.5344ZM49.3259 70.1652C33.7767 70.1652 21.1265 58.8526 21.1265 44.9454C21.1265 31.0381 33.7767 19.7256 49.3259 19.7256C64.875 19.7256 77.5337 31.04 77.5337 44.9454C77.5337 58.8507 64.8729 70.1652 49.3259 70.1652Z" fill="white"/>
</svg>
