<svg width="74" height="81" viewBox="0 0 74 81" fill="none" xmlns="http://www.w3.org/2000/svg">
<path d="M67.4689 0.0159466L67.318 0H7.21101C4.78316 0.108083 0.149713 1.51493 0.00295215 6.08452C-0.108167 9.692 2.93817 11.5046 5.66373 12.0751L9.49629 76.3205C9.48161 76.8716 9.56547 78.5619 10.945 79.7898C11.3851 80.176 11.9155 80.4807 12.5023 80.6844C13.0892 80.8882 13.7198 80.9866 14.3541 80.9734H59.3573C60.5812 81.092 61.8126 80.8112 62.7998 80.1885C63.6385 79.6569 64.6616 78.5938 64.8272 76.581C65.0558 73.8027 67.9511 22.5485 68.5361 12.162C70.9388 11.742 73.7566 10.0924 73.9872 6.50799C74.2556 2.3034 70.2385 0.324248 67.4689 0.0159466ZM60.2252 76.3081C60.1833 76.8273 60.0386 77.0558 60.0156 77.086C59.9884 77.0932 59.9602 77.0974 59.9317 77.0984L59.8604 77.0736H14.3646L14.2597 77.0753C14.1537 76.8616 14.1002 76.632 14.1025 76.4003V76.3347L12.3414 46.8016L39.2636 46.9415C39.2636 46.9415 41.6474 46.6226 41.6474 44.4149C41.6474 42.2072 39.2636 41.8865 39.2636 41.8865H12.0625L10.2993 12.2736H63.9131C63.2988 23.135 60.4454 73.6326 60.2252 76.3081ZM69.381 6.29714C69.2699 8.04064 68.014 8.34894 67.2656 8.37552H7.41228C6.86111 8.32286 6.32447 8.19166 5.82517 7.98749C4.93831 7.60299 4.58818 7.08739 4.61544 6.18906C4.67834 4.27015 6.71202 3.95122 7.41647 3.89806H66.9595C67.4253 3.98505 67.8704 4.1378 68.2761 4.34988C69.1001 4.78399 69.4397 5.38819 69.381 6.29714Z" fill="white"/>
</svg>
