<svg width="104" height="101" viewBox="0 0 104 101" fill="none" xmlns="http://www.w3.org/2000/svg">
<path d="M83.7513 26.9151C79.2627 22.747 73.8901 19.421 67.9477 17.1314C62.0053 14.8418 55.6123 13.6346 49.1422 13.5804C42.6722 13.5262 36.255 14.626 30.2656 16.8155C24.2763 19.0051 18.835 22.2404 14.2598 26.3325C9.68456 30.4246 6.06722 35.2913 3.61917 40.6483C1.17113 46.0052 -0.0585063 51.7448 0.00213874 57.5316C0.0627838 63.3185 1.41249 69.0364 3.97238 74.3514C6.53226 79.6663 10.251 84.4715 14.9111 88.4862C24.0972 96.3999 36.3886 100.773 49.1422 100.667C61.8959 100.56 74.0934 95.9807 83.1121 87.9144C92.1307 79.8481 97.2502 68.9386 97.3697 57.5316C97.4892 46.1246 92.5993 35.1312 83.7513 26.9151ZM49.3259 97.0477C25.065 97.0477 5.32603 79.395 5.32603 57.6959C5.32603 35.9967 25.065 18.3421 49.3259 18.3421C73.5869 18.3421 93.3236 35.9967 93.3236 57.6959C93.3236 79.395 73.5869 97.0477 49.3259 97.0477Z" fill="white"/>
<path d="M49.3259 28.5344C31.193 28.5344 16.4404 41.7272 16.4404 57.9454C16.4404 74.1635 31.193 87.3564 49.3259 87.3564C67.4587 87.3564 82.2198 74.1616 82.2198 57.9454C82.2198 41.7291 67.4566 28.5344 49.3259 28.5344ZM49.3259 83.1652C33.7767 83.1652 21.1265 71.8526 21.1265 57.9454C21.1265 44.0381 33.7767 32.7256 49.3259 32.7256C64.875 32.7256 77.5337 44.04 77.5337 57.9454C77.5337 71.8507 64.8729 83.1652 49.3259 83.1652Z" fill="white"/>
<path d="M97.4689 0.0159466L97.318 0H37.211C34.7832 0.108083 30.1497 1.51493 30.003 6.08452C29.8918 9.692 32.9382 11.5046 35.6637 12.0751L39.4963 76.3205C39.4816 76.8716 39.5655 78.5619 40.945 79.7898C41.3851 80.176 41.9155 80.4806 42.5023 80.6844C43.0892 80.8882 43.7198 80.9866 44.3541 80.9734H89.3573C90.5812 81.092 91.8126 80.8112 92.7998 80.1885C93.6385 79.6569 94.6616 78.5938 94.8272 76.581C95.0558 73.8027 97.9512 22.5485 98.5361 12.162C100.939 11.742 103.757 10.0924 103.987 6.50799C104.256 2.3034 100.239 0.324248 97.4689 0.0159466ZM90.2252 76.3081C90.1833 76.8273 90.0386 77.0558 90.0156 77.086C89.9884 77.0932 89.9602 77.0974 89.9317 77.0984L89.8604 77.0736H44.3646L44.2597 77.0753C44.1537 76.8617 44.1002 76.632 44.1025 76.4003V76.3347L42.3414 46.8016L69.2636 46.9415C69.2636 46.9415 71.6474 46.6226 71.6474 44.4149C71.6474 42.2072 69.2636 41.8865 69.2636 41.8865H42.0625L40.2993 12.2736H93.9131C93.2988 23.135 90.4454 73.6326 90.2252 76.3081ZM99.381 6.29714C99.2699 8.04064 98.014 8.34894 97.2656 8.37552H37.4123C36.8611 8.32286 36.3245 8.19166 35.8252 7.98749C34.9383 7.60299 34.5882 7.08739 34.6154 6.18906C34.6783 4.27015 36.712 3.95122 37.4165 3.89806H96.9595C97.4253 3.98505 97.8704 4.1378 98.2761 4.34988C99.1001 4.78399 99.4397 5.38819 99.381 6.29714Z" fill="white"/>
</svg>
