<svg width="131" height="53" viewBox="0 0 131 53" fill="none" xmlns="http://www.w3.org/2000/svg">
<path d="M128.923 0.000905625L2.1407 0.198861C2.1407 0.198861 0.193367 -0.151013 0.0101886 2.79069C-0.17299 5.73239 2.17452 5.58047 2.17452 5.58047H6.9259C8.51532 11.7953 13.5682 31.4596 15.9439 39.8612C19.2778 51.674 30.8181 52.2633 31.3084 52.2909H31.4437C33.0528 52.2909 58.5316 52.3761 78.0782 52.3761C88.2235 52.3761 96.754 52.3554 99.5468 52.2909C109.918 52.0446 113.823 41.2031 113.984 40.7428L123.791 5.54594H129.132C129.132 5.54594 131 5.97408 131 2.91959C131 -0.134901 128.923 0.000905625 128.923 0.000905625ZM108.004 39.4077C107.753 40.0637 104.918 47.0957 99.3692 47.2339C91.4587 47.418 34.5267 47.2339 31.579 47.2339C30.8293 47.174 24.1503 46.4213 21.9804 38.7356C19.7512 30.8266 15.1267 12.8657 13.2864 5.68405H117.397L108.004 39.4077Z" fill="white"/>
<path d="M47.9777 45.5766C49.7503 45.549 50.0969 44.0689 50.0969 44.0689L50.2688 26.6696C50.2694 26.6627 50.2694 26.6558 50.2688 26.6489V9.02398C50.2688 9.02398 50.0603 7.48868 48.2961 7.5163C46.532 7.54392 46.1769 9.02398 46.1769 9.02398L46.005 26.4118C46.005 26.4325 46.005 26.444 46.005 26.444V44.0735C46.005 44.0735 46.2051 45.6088 47.9777 45.5766Z" fill="white"/>
<path d="M58.8557 45.5766C60.6283 45.549 60.9749 44.0689 60.9749 44.0689L61.1468 26.6696C61.1456 26.6627 61.1456 26.6557 61.1468 26.6489V9.02398C61.1468 9.02398 60.9383 7.48868 59.1741 7.5163C57.41 7.54392 57.0521 9.02398 57.0521 9.02398L56.883 26.4118C56.883 26.4325 56.883 26.444 56.883 26.444V44.0735C56.883 44.0735 57.0831 45.6088 58.8557 45.5766Z" fill="white"/>
<path d="M71.9206 45.5766C73.6932 45.549 74.0426 44.0689 74.0426 44.0689L74.2145 26.6696V9.02398C74.2145 9.02398 74.006 7.48868 72.2418 7.5163C70.4777 7.54392 70.1226 9.02398 70.1226 9.02398L69.9507 26.4118C69.9518 26.4225 69.9518 26.4333 69.9507 26.444V44.0735C69.9507 44.0735 70.1479 45.6088 71.9206 45.5766Z" fill="white"/>
<path d="M82.7648 45.5766C84.5374 45.549 84.884 44.0689 84.884 44.0689L85.0559 26.6696C85.0565 26.6627 85.0565 26.6558 85.0559 26.6489V9.02398C85.0559 9.02398 84.8474 7.48868 83.0832 7.5163C81.3191 7.54392 80.964 9.02398 80.964 9.02398L80.7921 26.4118C80.7921 26.4325 80.7921 26.444 80.7921 26.444V44.0735C80.7921 44.0735 80.9922 45.6088 82.7648 45.5766Z" fill="white"/>
<path d="M92.1971 45.5053C93.964 45.5973 94.4516 44.1449 94.4516 44.1449L96.3904 26.8192C96.3892 26.8124 96.3892 26.8054 96.3904 26.7985L98.1941 9.23117C98.1941 9.23117 98.1433 7.68667 96.3735 7.59229C94.6037 7.49792 94.119 8.95266 94.119 8.95266L92.1632 26.2668C92.162 26.2775 92.162 26.2883 92.1632 26.299L90.3709 43.8687C90.3709 43.8687 90.4273 45.4109 92.1971 45.5053Z" fill="white"/>
<path d="M99.8201 45.259C101.57 45.4891 102.232 44.0804 102.232 44.0804L106.161 26.9804C106.162 26.9735 106.162 26.9665 106.161 26.9596L109.971 9.60866C109.971 9.60866 110.098 8.06645 108.345 7.83858C106.592 7.6107 105.933 9.0171 105.933 9.0171L102.027 26.1057V26.1379L98.2194 43.4889C98.2194 43.4889 98.0813 45.0311 99.8201 45.259Z" fill="white"/>
<path d="M34.6563 26.8307L36.5924 44.1448C36.5924 44.1448 37.0912 45.5972 38.8469 45.5052C40.6026 45.4131 40.6702 43.8686 40.6702 43.8686L38.9005 26.2989C38.9011 26.2921 38.9011 26.2851 38.9005 26.2782L36.9616 8.95258C36.9616 8.95258 36.4656 7.50014 34.7071 7.59221C32.9485 7.68428 32.8866 9.23109 32.8866 9.23109L34.6761 26.7984C34.6761 26.7984 34.6535 26.8099 34.6563 26.8307Z" fill="white"/>
<path d="M21.6027 9.60866L25.4129 26.9596V26.9919L29.347 44.0804C29.347 44.0804 30.0092 45.4891 31.7593 45.259C33.5094 45.0288 33.3825 43.4889 33.3825 43.4889L29.5752 26.1379C29.5747 26.131 29.5747 26.1241 29.5752 26.1172L25.6552 9.0171C25.6552 9.0171 24.993 7.6107 23.2401 7.83858C21.4872 8.06645 21.6027 9.60866 21.6027 9.60866Z" fill="white"/>
</svg>
