<svg width="108" height="103" viewBox="0 0 108 103" fill="none" xmlns="http://www.w3.org/2000/svg">
<path d="M92.8928 15.773C87.9142 10.8435 81.9553 6.90983 75.3643 4.20198C68.7732 1.49414 61.6824 0.0664127 54.5061 0.00226236C47.3299 -0.061888 40.2122 1.23882 33.5691 3.82837C26.926 6.41791 20.8908 10.2443 15.8162 15.084C10.7416 19.9237 6.72946 25.6795 4.01421 32.015C1.29896 38.3505 -0.0648923 45.1387 0.00237218 51.9827C0.0696366 58.8267 1.56667 65.5893 4.40596 71.8752C7.24526 78.161 11.3699 83.8441 16.5387 88.5922C26.7274 97.9516 40.3604 103.124 54.5061 102.998C68.6519 102.871 82.1808 97.4559 92.1838 87.916C102.187 78.3761 107.865 65.4736 107.998 51.9827C108.13 38.4918 102.707 25.4901 92.8928 15.773ZM54.7098 98.7178C27.8008 98.7178 5.90737 77.8402 5.90737 52.177C5.90737 26.5137 27.8008 5.63388 54.7098 5.63388C81.6189 5.63388 103.51 26.5137 103.51 52.177C103.51 77.8402 81.6189 98.7178 54.7098 98.7178Z" fill="white"/>
<path d="M54.7098 17.6881C34.5977 17.6881 18.235 33.2911 18.235 52.4721C18.235 71.653 34.5977 87.256 54.7098 87.256C74.8219 87.256 91.1941 71.6508 91.1941 52.4721C91.1941 33.2934 74.8195 17.6881 54.7098 17.6881ZM54.7098 82.2991C37.4635 82.2991 23.4325 68.92 23.4325 52.4721C23.4325 36.0242 37.4635 22.645 54.7098 22.645C71.9562 22.645 85.9966 36.0264 85.9966 52.4721C85.9966 68.9177 71.9538 82.2991 54.7098 82.2991Z" fill="white"/>
</svg>
