<svg width="138" height="46" viewBox="0 0 138 46" fill="none" xmlns="http://www.w3.org/2000/svg">
<path d="M20.8387 13.2676L25.1856 6.78692C25.2606 6.6815 25.3207 6.55464 25.3622 6.41384C25.4038 6.27305 25.4261 6.12119 25.4276 5.96729C25.4292 5.81339 25.4102 5.66058 25.3715 5.51792C25.3329 5.37527 25.2755 5.24568 25.2027 5.13684C25.13 5.028 25.0433 4.94213 24.9479 4.88433C24.8526 4.82654 24.7504 4.79798 24.6475 4.80037C24.5447 4.80276 24.4431 4.83603 24.349 4.89823C24.2549 4.96042 24.1701 5.05026 24.0996 5.16242L19.7527 11.6431C19.616 11.8607 19.5412 12.1494 19.5443 12.448C19.5474 12.7466 19.6281 13.0316 19.7693 13.2428C19.9104 13.454 20.101 13.5747 20.3006 13.5793C20.5002 13.5839 20.6932 13.4721 20.8387 13.2676Z" fill="white"/>
<path d="M28.5592 4.43226L19.8653 17.4325C19.7904 17.5379 19.7303 17.6648 19.6887 17.8056C19.6471 17.9464 19.6249 18.0983 19.6233 18.2522C19.6217 18.4061 19.6408 18.5589 19.6794 18.7015C19.7181 18.8442 19.7755 18.9738 19.8482 19.0826C19.921 19.1915 20.0076 19.2773 20.103 19.3351C20.1984 19.3929 20.3005 19.4215 20.4034 19.4191C20.5063 19.4167 20.6078 19.3834 20.7019 19.3212C20.7961 19.259 20.8809 19.1692 20.9513 19.057L29.6452 6.05675C29.7201 5.95134 29.7802 5.82447 29.8218 5.68368C29.8634 5.54288 29.8856 5.39103 29.8872 5.23713C29.8888 5.08323 29.8697 4.93041 29.8311 4.78776C29.7924 4.6451 29.735 4.51551 29.6623 4.40667C29.5895 4.29784 29.5029 4.21197 29.4075 4.15417C29.3121 4.09637 29.21 4.06782 29.1071 4.07021C29.0042 4.07259 28.9027 4.10587 28.8086 4.16806C28.7144 4.23026 28.6296 4.3201 28.5592 4.43226Z" fill="white"/>
<path d="M137.447 4.93397C135.564 0.237626 129.487 0 128.288 0H19.9995C14.2229 0 11.7967 3.65943 10.8638 5.84559L0.662276 30.5457C0.265976 31.4326 0.0385835 32.4643 0.00449141 33.5299C-0.0296007 34.5955 0.130894 35.6548 0.468759 36.5943C0.994431 38.059 1.91291 39.1045 3.02203 39.8433C3.27991 40.6219 3.62583 41.3279 4.04449 41.9301C6.23094 44.6261 9.59871 46 12.8221 46H115.068C118.95 46 122.038 44.0471 123.545 40.6426L123.909 39.7483C125.231 38.8814 126.366 37.483 127.188 35.7087L137.438 10.8962L137.539 10.6327C137.857 9.75296 138.015 8.76445 137.999 7.76495C137.983 6.76545 137.793 5.7896 137.447 4.93397ZM121.888 30.4895C121.674 30.9216 120.576 31.9844 118.092 31.9844H9.80378C9.07213 31.9856 8.34108 31.9221 7.61444 31.7943L16.2245 10.9481C16.4065 10.5592 17.452 9.50502 19.9995 9.50502H128.288C129.013 9.50429 129.736 9.58953 130.451 9.75993L121.888 30.4895Z" fill="white"/>
</svg>
