<svg width="30" height="26" viewBox="0 0 30 26" fill="none" xmlns="http://www.w3.org/2000/svg">
<path d="M0 2.14286C0 0.957589 0.957589 0 2.14286 0H27.8571C29.0424 0 30 0.957589 30 2.14286C30 3.32812 29.0424 4.28571 27.8571 4.28571H2.14286C0.957589 4.28571 0 3.32812 0 2.14286ZM0 12.8571C0 11.6719 0.957589 10.7143 2.14286 10.7143H27.8571C29.0424 10.7143 30 11.6719 30 12.8571C30 14.0424 29.0424 15 27.8571 15H2.14286C0.957589 15 0 14.0424 0 12.8571ZM30 23.5714C30 24.7567 29.0424 25.7143 27.8571 25.7143H2.14286C0.957589 25.7143 0 24.7567 0 23.5714C0 22.3862 0.957589 21.4286 2.14286 21.4286H27.8571C29.0424 21.4286 30 22.3862 30 23.5714Z" fill="#EEF2E6"/>
</svg>
